<svg width="120" height="120" viewBox="0 0 120 120" fill="none" xmlns="http://www.w3.org/2000/svg">
<g clip-path="url(#clip0)">
<path d="M60.0026 120.005C93.1412 120.005 120.005 93.1412 120.005 60.0026C120.005 26.8641 93.1412 0 60.0026 0C26.8641 0 0 26.8641 0 60.0026C0 93.1412 26.8641 120.005 60.0026 120.005Z" fill="#FCF1E0"/>
<path d="M64.9505 47.5883C64.6859 47.9534 64.4954 48.2286 64.3843 48.3927L64.3366 48.4614C64.3187 48.4846 64.2964 48.504 64.271 48.5186C64.2456 48.5331 64.2175 48.5424 64.1885 48.5461C65.4162 49.8426 69.041 54.113 69.3426 59.7751C73.4384 58.1453 75.4227 56.1344 76.37 54.7374C76.62 54.1529 76.9475 53.6047 77.3436 53.1076C76.116 52.6154 68.7552 49.6574 64.9505 47.583V47.5883Z" fill="#BC2E3E"/>
<path d="M65.6329 48.636L65.8604 48.7471L65.8022 48.8106C65.8022 48.7577 65.8022 48.7524 65.8022 48.7312H65.7493L65.6594 48.8371L65.7229 48.8741C65.7599 48.8741 65.7705 48.8741 65.7969 48.8741L65.7334 48.9641C65.7334 48.9323 65.7334 48.9217 65.7334 48.9006L65.6752 48.8688L65.6011 48.9641C65.6011 48.9641 65.6011 48.9641 65.6011 48.9906H65.6329L65.4424 48.9112L65.6117 48.6995C65.6117 48.6995 65.6117 48.6995 65.6117 48.673L65.6329 48.636Z" fill="#FCF1E0"/>
<path d="M65.972 49.001C65.9587 49.0345 65.9345 49.0625 65.9032 49.0804C65.8831 49.092 65.8603 49.0982 65.8371 49.0982C65.8138 49.0982 65.791 49.092 65.7709 49.0804C65.7593 49.0754 65.7489 49.068 65.7404 49.0587C65.7319 49.0493 65.7254 49.0383 65.7214 49.0264C65.7174 49.0144 65.716 49.0017 65.7172 48.9891C65.7185 48.9766 65.7223 48.9644 65.7286 48.9534C65.7286 48.9164 65.8291 48.8211 65.9297 48.874C65.9426 48.8773 65.9545 48.8837 65.9643 48.8928C65.9741 48.9019 65.9814 48.9133 65.9857 48.9259C65.9899 48.9386 65.9908 48.9521 65.9885 48.9653C65.9861 48.9784 65.9804 48.9907 65.972 49.001ZM65.7656 49.001C65.7656 49.0328 65.7656 49.054 65.7656 49.0698C65.7656 49.0857 65.9032 48.9905 65.9244 48.9587C65.9455 48.927 65.9244 48.9058 65.9244 48.8952C65.9244 48.8846 65.7815 48.9587 65.7603 49.0063L65.7656 49.001Z" fill="#FCF1E0"/>
<path d="M65.9292 49.1706L66.0403 49.0277C66.0403 48.9959 66.0721 48.9854 66.0403 48.9854H66.1197L66.0615 49.0541C66.0773 49.0384 66.0964 49.0264 66.1175 49.019C66.1386 49.0117 66.161 49.0092 66.1832 49.0118C66.1832 49.0118 66.1567 49.0118 66.1462 49.0118C66.1356 49.0118 66.1462 49.0118 66.1462 49.0118C66.1132 49.0239 66.0828 49.0418 66.0562 49.0647L65.9768 49.16L65.9292 49.1706Z" fill="#FCF1E0"/>
<path d="M66.5276 49.0698H66.5011C66.5011 49.0698 66.5011 49.0698 66.4693 49.0698L66.3053 49.2762L66.1836 49.2127L66.3476 49.0063L66.5276 49.0698ZM66.6863 49.1439C66.659 49.1338 66.629 49.1338 66.6016 49.1439L66.4376 49.181C66.4376 49.2286 66.4376 49.308 66.4376 49.3556C66.4359 49.3751 66.4415 49.3945 66.4532 49.4101C66.4649 49.4257 66.482 49.4364 66.5011 49.4403C66.4856 49.4361 66.4717 49.4272 66.4613 49.415C66.4509 49.4027 66.4445 49.3875 66.4429 49.3715C66.4376 49.3169 66.4376 49.262 66.4429 49.2074C66.5117 49.2074 66.5805 49.1757 66.6387 49.1545C66.6969 49.1334 66.6387 49.1545 66.6387 49.1545L66.6863 49.1439Z" fill="#FCF1E0"/>
<path d="M66.501 49.4403L66.6121 49.2974C66.6121 49.2974 66.6439 49.2604 66.6121 49.2551H66.5856H66.665L66.6068 49.3292C66.6491 49.2921 66.6968 49.271 66.7232 49.2869C66.7232 49.2869 66.7232 49.3133 66.6862 49.2869C66.6491 49.2604 66.6862 49.2869 66.6862 49.2869C66.6862 49.2869 66.6386 49.2869 66.6015 49.3398L66.5169 49.4297L66.501 49.4403Z" fill="#FCF1E0"/>
<path d="M66.8658 49.3398C66.8445 49.408 66.8198 49.4751 66.7917 49.5409L66.9081 49.4456L66.9452 49.3821H66.9822C66.9822 49.3821 66.9822 49.3821 66.9822 49.4139C66.9509 49.4438 66.9152 49.4688 66.8764 49.488L66.7652 49.5726C66.6911 49.6202 66.6541 49.6361 66.617 49.6202C66.58 49.6044 66.617 49.5885 66.617 49.5832C66.6224 49.5793 66.6289 49.5772 66.6356 49.5772C66.6422 49.5772 66.6487 49.5793 66.6541 49.5832C66.6541 49.5832 66.6858 49.5832 66.7017 49.5832C66.7175 49.5715 66.7287 49.5546 66.7335 49.5356C66.7335 49.4985 66.7811 49.4086 66.797 49.3715C66.8129 49.3345 66.797 49.3398 66.797 49.3345H66.7652L66.8658 49.3398Z" fill="#FCF1E0"/>
<path d="M67.1465 49.5197C67.1465 49.5197 67.1465 49.4774 67.1465 49.4721C67.1398 49.4665 67.1314 49.4634 67.1227 49.4634C67.114 49.4634 67.1056 49.4665 67.0989 49.4721C67.0942 49.4811 67.0918 49.4911 67.0918 49.5012C67.0918 49.5113 67.0942 49.5213 67.0989 49.5303C67.0989 49.5779 67.0989 49.5938 67.0989 49.6255C67.084 49.6401 67.0641 49.6483 67.0433 49.6483C67.0225 49.6483 67.0026 49.6401 66.9878 49.6255C66.9401 49.6255 66.9348 49.5674 66.9401 49.5515C66.9454 49.5356 66.9401 49.5515 66.9772 49.5515C67.0142 49.5515 66.9772 49.5515 66.9772 49.5515C66.9707 49.5598 66.9672 49.5701 66.9672 49.5806C66.9672 49.5911 66.9707 49.6014 66.9772 49.6097C66.9772 49.6097 67.0089 49.6097 67.0195 49.6097C67.0301 49.6097 67.0195 49.5726 67.0195 49.5409C67.0094 49.5136 67.0094 49.4836 67.0195 49.4562C67.0249 49.4471 67.0322 49.4391 67.0407 49.4327C67.0493 49.4264 67.0591 49.4219 67.0695 49.4194C67.0798 49.4169 67.0906 49.4166 67.1011 49.4184C67.1116 49.4201 67.1217 49.424 67.1306 49.4298C67.1518 49.4774 67.1518 49.5039 67.1465 49.5197Z" fill="#FCF1E0"/>
<path d="M67.2629 49.5567L67.1518 49.6996C67.1518 49.6996 67.1994 49.6996 67.2205 49.6996C67.2034 49.7085 67.1843 49.7131 67.165 49.7131C67.1457 49.7131 67.1266 49.7085 67.1094 49.6996C67.083 49.6996 67.1094 49.6679 67.1094 49.6414L67.2311 49.5038H67.1941H67.2311L67.2629 49.4668H67.3211L67.2735 49.5197H67.3264L67.2629 49.5567Z" fill="#FCF1E0"/>
<path d="M67.5591 49.6732L67.4216 49.8266C67.4216 49.8266 67.4639 49.8266 67.4798 49.7949C67.4659 49.8098 67.4483 49.8207 67.4287 49.8263C67.4091 49.8319 67.3883 49.832 67.3686 49.8266C67.3686 49.8266 67.3686 49.7896 67.3686 49.7631L67.4057 49.7261C67.3833 49.745 67.3569 49.7586 67.3285 49.7659C67.3001 49.7732 67.2704 49.7741 67.2416 49.7684C67.2099 49.7684 67.2416 49.7208 67.2416 49.6943C67.2604 49.6498 67.2958 49.6144 67.3403 49.5956C67.3847 49.5769 67.4348 49.5762 67.4798 49.5938C67.4902 49.5913 67.5011 49.5913 67.5115 49.5938L67.5591 49.6732ZM67.4798 49.6732C67.411 49.6361 67.3104 49.7261 67.2893 49.7737C67.2681 49.8213 67.2893 49.8055 67.2893 49.8107C67.2893 49.816 67.4321 49.7631 67.4692 49.7208C67.4692 49.7208 67.4851 49.652 67.4745 49.652L67.4798 49.6732Z" fill="#FCF1E0"/>
<path d="M67.6068 49.9008C67.5935 49.9149 67.5767 49.9252 67.5581 49.9308C67.5396 49.9363 67.5199 49.9369 67.501 49.9325C67.501 49.9325 67.501 49.8955 67.501 49.869L67.6809 49.6521L67.7656 49.6838L67.5592 49.9378C67.5592 49.9378 67.6015 49.9378 67.6227 49.9378L67.6068 49.9008Z" fill="#FCF1E0"/>
<path d="M32.47 59.2619C30.1274 59.2557 27.8219 58.6762 25.7548 57.5738C20.4631 54.8116 20.9658 50.9116 20.9923 50.7475C21.0091 50.645 21.0557 50.5497 21.1262 50.4735C21.1968 50.3973 21.2883 50.3435 21.3892 50.3189C21.4884 50.3 21.5909 50.3099 21.6847 50.3474C21.7785 50.3849 21.8595 50.4485 21.9184 50.5306C23.1937 52.388 27.3847 55.3249 31.7503 54.0496C36.9997 52.515 40.5134 52.9912 40.6616 53.0389C40.7955 53.0623 40.9153 53.1363 40.9961 53.2457C41.0769 53.3551 41.1125 53.4913 41.0955 53.6262C41.0721 53.7602 40.998 53.88 40.8887 53.9608C40.7793 54.0416 40.643 54.0771 40.5081 54.0601C40.4711 54.0601 37.0579 53.5786 32.0414 55.0444C28.1573 56.1769 24.3261 54.3988 22.1829 52.3986C22.5375 53.5786 23.5323 55.2614 26.2205 56.6637C28.058 57.6711 30.1137 58.2145 32.2089 58.2467C34.3042 58.279 36.3756 57.7992 38.2433 56.8489C38.3639 56.7853 38.5044 56.7707 38.6355 56.8081C38.7667 56.8456 38.8783 56.9322 38.9471 57.05C39.0111 57.17 39.0266 57.31 38.9901 57.4411C38.9536 57.5721 38.8681 57.6841 38.7513 57.7538C36.8096 58.7552 34.6547 59.2726 32.47 59.2619Z" fill="#001C72"/>
<path d="M64.4902 84.8261C62.6592 84.8261 60.4103 84.207 59.516 81.9157C58.3435 79.1693 57.7612 76.2072 57.8068 73.2214C57.8068 72.9039 57.8491 72.5388 57.8861 72.163C57.9858 71.3965 58.0176 70.6227 57.9814 69.8506C57.4259 71.0267 56.6331 72.0752 55.653 72.9303C54.1449 74.3485 53.3459 76.5922 54.9704 78.4125C56.1442 79.8043 57.0131 81.4267 57.521 83.1751C57.5382 83.2438 57.5415 83.3153 57.5306 83.3852C57.5197 83.4552 57.4948 83.5223 57.4575 83.5826C57.4194 83.642 57.3699 83.6932 57.3117 83.7332C57.2535 83.7732 57.188 83.8011 57.1188 83.8154C52.1182 84.7732 51.0387 82.4978 49.4194 79.0529L49.0702 78.3226C47.5356 75.1105 49.1284 72.5017 50.409 70.4379C50.7486 69.9064 51.0595 69.3571 51.3403 68.7922C52.1552 67.046 51.3826 64.9452 51.081 64.2572C49.0702 63.908 46.9429 63.9821 45.3607 64.8658C41.7464 66.8766 39.6986 70.2157 37.7459 73.7506C36.1954 76.5605 34.4756 80.5398 35.1001 83.5349C35.1243 83.6671 35.0973 83.8036 35.0245 83.9166C34.9518 84.0296 34.8388 84.1107 34.7085 84.1435C34.6132 84.1435 32.359 84.6726 30.9567 83.3338C30.0465 82.4766 29.7343 81.0954 30.0412 79.2328C30.5704 75.9149 31.9356 73.9411 33.248 72.0572C34.2391 70.7458 35.0506 69.3078 35.661 67.7815C36.1565 66.2951 36.4849 64.7581 36.6399 63.1989C36.8439 61.134 37.3152 59.1044 38.0422 57.1611V57.1028C39.2964 54.3194 41.6141 49.1653 49.1919 48.8689C55.96 48.6202 62.7069 48.1599 64.0086 48.0699C64.6648 47.1068 67.1043 43.6566 69.2157 42.249C69.5581 40.738 70.2203 39.318 71.1577 38.0845C71.6045 37.5152 72.1642 37.0446 72.8017 36.7021C73.4392 36.3597 74.1406 36.1529 74.8619 36.0948C75.2514 35.8721 75.6651 35.6946 76.0949 35.5656C80.106 34.3962 81.7464 36.0948 82.7254 37.1849C83.8843 37.7141 85.7417 37.3172 87.1016 37.0156C87.3641 36.931 87.6416 36.9038 87.9155 36.9357C88.1894 36.9677 88.4532 37.058 88.6891 37.2007C88.9089 37.4011 89.0823 37.6469 89.1975 37.921C89.3126 38.1952 89.3667 38.4911 89.3559 38.7883C89.4018 39.224 89.3858 39.6641 89.3083 40.0953C89.2732 40.2696 89.2537 40.4467 89.2501 40.6245C89.2501 41.0478 89.176 43.2068 87.6625 44.408C86.9639 44.885 86.2194 45.291 85.44 45.6199C84.0271 46.2866 82.265 47.1227 81.0797 48.3292C80.2613 49.949 79.2771 51.4794 78.1428 52.896C77.3649 53.9173 76.8516 54.5893 76.6664 55.5418C76.0843 58.484 76.8304 62.1511 77.2273 64.1249C77.3331 64.6541 77.4178 65.0457 77.4601 65.342C77.6612 66.7443 79.7091 78.3914 81.0373 81.6035C81.0803 81.723 81.0788 81.854 81.0331 81.9725C80.9874 82.091 80.9007 82.1892 80.7886 82.249C80.2051 82.4875 79.5794 82.6052 78.9491 82.5952C78.3188 82.5852 77.6971 82.4477 77.1215 82.1908C75.9414 81.5823 75.1477 80.3599 74.7561 78.5607C74.2661 76.488 73.6727 74.441 72.9781 72.4276C72.3536 70.4962 71.7451 68.6282 71.3482 66.9084C69.1093 68.1585 66.5093 68.603 63.9822 68.1678C63.8658 69.8082 63.5853 74.6925 64.0827 77.587C64.5801 80.4816 66.501 83.8365 66.501 83.8683C66.5424 83.939 66.5668 84.0183 66.5723 84.1C66.5778 84.1818 66.5643 84.2637 66.5328 84.3393C66.5 84.4138 66.4506 84.4799 66.3881 84.5322C66.3257 84.5845 66.2521 84.6217 66.1729 84.6409C65.6204 84.7632 65.0561 84.8253 64.4902 84.8261ZM57.5739 66.1622C59.3308 68.1678 59.0821 70.6284 58.918 72.2583C58.881 72.6234 58.8439 72.9674 58.8386 73.2478C58.7998 76.0944 59.3587 78.9175 60.4791 81.5347C61.3892 83.8577 63.9981 83.8789 65.2416 83.7413C64.216 81.8738 63.4691 79.8664 63.0244 77.7828C62.4 74.1527 62.9344 67.8133 62.9556 67.5434C62.9626 67.4721 62.9841 67.4029 63.0187 67.3402C63.0532 67.2774 63.1002 67.2223 63.1567 67.1783C63.2145 67.1355 63.2805 67.105 63.3506 67.0886C63.4206 67.0723 63.4933 67.0704 63.5641 67.083C67.1202 67.7127 69.5808 66.8131 71.0889 65.8553C70.9198 64.968 70.8471 64.0649 70.872 63.1618C71.036 61.2092 71.8827 60.7012 72.3695 60.5742C72.6994 60.5019 73.0436 60.5338 73.3545 60.6656C73.6654 60.7974 73.9277 61.0224 74.1052 61.3098C74.6344 62.0665 74.8196 63.3735 73.7983 64.797C73.3542 65.3776 72.8284 65.891 72.2372 66.321C72.6129 68.0832 73.2585 70.0728 73.9253 72.1419C74.592 74.2109 75.3064 76.3752 75.735 78.3755C76.0526 79.8519 76.6611 80.8362 77.5501 81.2965C78.2769 81.629 79.0975 81.6945 79.8679 81.4817C78.5026 77.6029 76.6346 67.0248 76.4177 65.4955C76.3806 65.2256 76.3013 64.834 76.2007 64.3366C75.7827 62.294 75.0101 58.5158 75.6345 55.3407C75.8673 54.1607 76.5023 53.3246 77.3014 52.2715C78.4086 50.8784 79.363 49.3704 80.1483 47.7736C80.174 47.727 80.2061 47.6843 80.2436 47.6466C81.5612 46.2707 83.4451 45.3764 84.9638 44.662C85.6701 44.3626 86.3469 43.9976 86.9852 43.5719C88.1653 42.6512 88.2023 40.8097 88.2023 40.6033C88.2058 40.3797 88.2271 40.1568 88.2658 39.9366C88.3319 39.6093 88.3479 39.2738 88.3134 38.9417C88.2764 38.5554 88.2341 38.1691 88.07 38.0474C87.9959 37.9945 87.7948 37.9257 87.2974 38.0474C85.7469 38.3914 83.5932 38.8623 82.1327 38.0845C82.0814 38.0547 82.035 38.0172 81.9951 37.9733C81.0638 36.9626 79.8361 35.6185 76.5076 36.534C76.8653 36.7801 77.1554 37.1121 77.3515 37.4995C77.5475 37.8869 77.6431 38.3173 77.6295 38.7512C77.6824 41.3971 78.0316 42.1591 78.6878 43.5825L78.7196 43.646C79.1641 44.6462 79.1376 45.4929 78.6508 45.9797C78.1639 46.4665 77.222 46.5089 76.0049 45.9374C75.2497 45.624 74.559 45.1737 73.9676 44.6091C73.4957 44.1445 72.9156 43.8044 72.2796 43.6196C71.5229 43.3497 71.1048 42.63 71.1313 41.6405C71.2596 40.3378 71.7675 39.1013 72.5918 38.0845C72.3536 38.2848 72.134 38.5061 71.9356 38.7459C71.0696 39.9129 70.4634 41.2517 70.1576 42.6724C70.1434 42.7429 70.1149 42.8097 70.074 42.8689C70.033 42.928 69.9804 42.9782 69.9195 43.0163C67.8028 44.2916 65.0723 48.3081 64.7653 48.7578C64.7027 48.8509 64.6195 48.9283 64.5223 48.9842C64.4251 49.0402 64.3163 49.0732 64.2044 49.0806C63.4213 49.1335 56.341 49.6098 49.2342 49.8902C42.3021 50.1442 40.2383 54.7586 38.9948 57.5156C38.3005 59.3907 37.8488 61.3468 37.6507 63.3365C37.4796 64.9711 37.1246 66.5811 36.5923 68.1361C35.9514 69.7437 35.1009 71.2597 34.0629 72.6446C32.7611 74.5284 31.5282 76.3064 31.0255 79.3968C30.782 80.8943 30.9831 81.9633 31.6234 82.5718C31.9522 82.8261 32.3284 83.0123 32.73 83.1195C33.1316 83.2267 33.5505 83.2528 33.9623 83.1962C33.5708 79.9789 35.2747 76.0471 36.8199 73.2478C38.365 70.4485 40.6616 66.2787 44.8315 63.9556C49.0014 61.6325 55.8171 63.9926 57.5739 66.1622ZM52.2822 64.5059C52.6632 65.6172 53.0601 67.501 52.2822 69.2156C51.9827 69.8171 51.6506 70.4018 51.2874 70.9671C50.0809 72.9303 48.7103 75.1581 50.0068 77.8463L50.356 78.5766C51.8483 81.7516 52.6262 83.4132 56.3462 82.8629C55.8697 81.4772 55.1393 80.1924 54.1925 79.074C52.1235 76.7457 53.1342 73.8511 54.9492 72.1472C56.5367 70.6549 58.1243 68.5171 56.7802 66.8078C56.0817 65.9612 54.3301 65.0404 52.2981 64.5059H52.2822ZM72.7347 61.5585C72.7049 61.553 72.6744 61.553 72.6447 61.5585C72.3642 61.6326 72.0044 62.0877 71.9144 63.2148C71.8877 63.8626 71.9267 64.5115 72.0309 65.1515C72.3776 64.8637 72.6901 64.537 72.9622 64.1778C73.6713 63.1936 73.5654 62.3258 73.2585 61.8813C73.2036 61.7927 73.1293 61.7178 73.0414 61.6619C72.9534 61.606 72.854 61.5706 72.7505 61.5585H72.7347ZM75.1159 37.132C73.3273 38.2432 72.2002 40.3546 72.1631 41.6617C72.1631 42.1908 72.306 42.5242 72.6235 42.6353C73.3823 42.8652 74.0741 43.2755 74.6397 43.8313C75.1505 44.3189 75.7482 44.7066 76.4018 44.9743C77.3596 45.4082 77.8041 45.3394 77.9152 45.2283C78.0264 45.1171 78.0687 44.7256 77.7671 44.0535L77.7353 43.9847C77.0738 42.4925 76.677 41.5876 76.6135 38.7565C76.6416 38.4314 76.5621 38.1061 76.3871 37.8307C76.2121 37.5553 75.9514 37.3451 75.6451 37.2325C75.4739 37.1758 75.296 37.142 75.1159 37.132Z" fill="#001C72"/>
<path d="M103.04 41.847L102.59 40.6722L107.411 38.8571L107.94 40.2224L105.823 42.4925L108.903 42.7677L109.432 44.1382L104.601 45.9586L104.156 44.7838L106.908 43.7255L103.4 43.3868L105.781 40.7886L103.04 41.847ZM106.448 50.3772L105.659 50.2925L105.416 48.9749L110.792 49.7104L111.083 51.2979L106.321 53.9014L106.072 52.5521L106.76 52.1922L106.448 50.3772ZM109.501 50.737L107.496 50.4989L107.718 51.6842L109.501 50.737ZM111.777 56.9336L111.808 58.4417C111.883 59.126 111.694 59.813 111.279 60.3626C111.043 60.6392 110.749 60.8611 110.418 61.0128C110.087 61.1645 109.727 61.2423 109.364 61.241C108.987 61.2588 108.611 61.199 108.259 61.0651C107.906 60.9313 107.585 60.7264 107.316 60.4632C106.889 59.9711 106.664 59.336 106.686 58.6851L106.649 57.0394L111.777 56.9336ZM107.675 58.2724V58.4629C107.671 58.6693 107.709 58.8746 107.788 59.0654C107.867 59.2562 107.985 59.4284 108.134 59.5709C108.284 59.7134 108.461 59.8231 108.656 59.8929C108.85 59.9627 109.057 59.9911 109.263 59.9763C109.708 59.9784 110.135 59.8054 110.454 59.4948C110.692 59.1944 110.815 58.8194 110.803 58.4364V58.1983L107.675 58.2724ZM109.364 66.3422L109.141 68.025L108.136 67.8927L108.363 66.2099L107.305 66.0671L107.083 67.7551L106.077 67.6228L106.464 64.6965L111.575 65.3739L111.189 68.2949L110.184 68.1626L110.422 66.4798L109.364 66.3422ZM103.394 77.2326L103.839 76.0578L108.66 77.9046L108.215 79.0741L103.394 77.2326ZM101.32 81.7464L101.955 80.6616L106.464 83.1593L105.834 84.2388L102.389 84.4769L104.924 85.8792L104.321 86.9799L99.8067 84.4822L100.41 83.3868L103.892 83.1646L101.32 81.7464ZM93.118 92.8907L93.9858 91.9911L96.9651 94.8698L97.7906 94.0126L98.5208 94.7164L96.002 97.3252L95.2717 96.6214L96.0972 95.7694L93.118 92.8907ZM88.9111 96.6531L89.9059 95.8964L93.0333 99.9922L92.0385 100.77L90.7579 99.0926L89.4085 100.119L90.6891 101.797L89.6943 102.553L86.5668 98.4576L87.5617 97.6956L88.7947 99.3148L90.1441 98.2883L88.9111 96.6531ZM84.0215 103.596L82.524 104.405L82.0424 103.516L83.5347 102.707L83.0055 101.765L81.508 102.58L81.0264 101.691L83.6194 100.278L86.0853 104.808L83.4924 106.221L83.0055 105.332L84.5031 104.517L84.0215 103.596ZM72.3798 107.258C72.3389 106.979 72.2111 106.719 72.0147 106.517C71.9188 106.444 71.8075 106.393 71.6892 106.369C71.571 106.345 71.4488 106.349 71.332 106.379C71.203 106.407 71.083 106.466 70.9831 106.552C70.8832 106.638 70.8067 106.748 70.7605 106.871C70.711 107.127 70.7274 107.391 70.8082 107.639L71.5172 110.554L70.3002 110.851L69.6069 107.988C69.4159 107.397 69.4556 106.756 69.7181 106.194C69.8634 105.954 70.057 105.747 70.2865 105.586C70.5161 105.425 70.7766 105.313 71.0516 105.257C71.336 105.177 71.6341 105.157 71.9267 105.199C72.2192 105.241 72.4998 105.344 72.7502 105.501C73.2215 105.876 73.5303 106.418 73.6128 107.014L74.306 109.877L73.0889 110.173L72.3798 107.258ZM64.5851 108.02C64.5878 107.992 64.5878 107.963 64.5851 107.935C64.551 107.796 64.4652 107.676 64.3452 107.598C64.2253 107.52 64.0801 107.491 63.9395 107.517C63.6379 107.517 63.4104 107.734 63.4421 107.967C63.4739 108.2 63.6061 108.3 64.2253 108.469C65.3842 108.776 65.8604 109.216 65.9239 109.999C65.9478 110.226 65.9223 110.456 65.8491 110.672C65.776 110.889 65.657 111.087 65.5003 111.253C65.3435 111.42 65.1527 111.55 64.9409 111.636C64.729 111.722 64.5012 111.761 64.2729 111.75C63.9666 111.792 63.6548 111.752 63.3687 111.635C63.0826 111.518 62.8324 111.328 62.6431 111.084C62.4756 110.842 62.3619 110.568 62.3097 110.279L63.5797 110.179C63.5867 110.251 63.6084 110.321 63.6436 110.384C63.6788 110.448 63.7267 110.503 63.7843 110.548C63.8418 110.592 63.9079 110.624 63.9783 110.641C64.0487 110.659 64.122 110.662 64.1935 110.65C64.5004 110.65 64.6856 110.449 64.6645 110.2C64.6589 110.122 64.6309 110.048 64.5839 109.986C64.537 109.924 64.473 109.877 64.3999 109.851C64.2057 109.758 64.0015 109.689 63.7914 109.644C63.3845 109.553 62.9985 109.386 62.6536 109.152C62.499 109.034 62.3716 108.884 62.2802 108.713C62.1889 108.541 62.1358 108.351 62.1245 108.157C62.0451 107.2 62.733 106.501 63.8337 106.416C64.9344 106.332 65.7122 106.908 65.7916 107.924L64.5851 108.02ZM57.5048 107.358L57.78 106.633L59.1135 106.729L57.0497 111.75L55.4622 111.639L54.1446 106.374L55.5151 106.469L55.6898 107.226L57.5048 107.358ZM56.383 110.221L57.1238 108.348L55.9173 108.258L56.383 110.221ZM42.3335 105.707L45.4715 106.803L45.154 107.723L42.0107 106.628L42.3335 105.707ZM34.3959 99.0132L35.4543 99.7223L32.5385 103.982L31.4802 103.273L32.6708 101.532L31.2738 100.574L30.0779 102.315L29.0196 101.606L31.9353 97.3728L32.9936 98.0766L31.8453 99.7594L33.2423 100.717L34.3959 99.0132ZM27.8448 94.8169L28.5168 94.4412L29.4799 95.3672L24.6856 97.902L23.5374 96.796L25.8922 91.9118L26.8817 92.8643L26.5272 93.5575L27.8448 94.8169ZM25.1513 96.3039L26.9187 95.3355L26.0509 94.4994L25.1513 96.3039ZM23.0611 88.488L23.8178 89.4882L19.7114 92.605L18.6531 91.1921C17.9123 90.2184 17.9864 89.2924 18.8436 88.6415C19.0289 88.4842 19.2457 88.3684 19.4796 88.3021C19.7134 88.2358 19.9587 88.2204 20.199 88.257C20.4393 88.2937 20.6689 88.3814 20.8723 88.5144C21.0758 88.6473 21.2483 88.8224 21.3783 89.0278L21.7382 89.504L23.0611 88.488ZM20.6957 89.848C20.6474 89.7568 20.5796 89.6774 20.4971 89.6154C20.4147 89.5533 20.3196 89.5102 20.2186 89.489C20.1176 89.4678 20.0132 89.469 19.9128 89.4927C19.8123 89.5163 19.7183 89.5617 19.6374 89.6257C19.5586 89.6807 19.4923 89.7518 19.4428 89.8342C19.3934 89.9165 19.3619 90.0085 19.3504 90.1039C19.3389 90.1993 19.3477 90.296 19.3761 90.3878C19.4046 90.4796 19.4522 90.5643 19.5157 90.6364L19.7802 90.9857L20.9127 90.1232L20.6957 89.848ZM19.1823 82.5931L19.7802 83.6937L15.2505 86.1491L14.4092 84.5933C13.8271 83.535 14.0387 82.6142 14.9807 82.1009C15.1876 81.9739 15.4194 81.8928 15.6604 81.8629C15.9014 81.8331 16.146 81.8553 16.3777 81.928C16.6094 82.0007 16.8228 82.1223 17.0036 82.2845C17.1843 82.4467 17.3281 82.6457 17.4254 82.8682L17.7112 83.3974L19.1823 82.5931ZM16.6423 83.5773C16.6085 83.4793 16.5535 83.39 16.4812 83.3157C16.4089 83.2414 16.321 83.184 16.224 83.1476C16.1269 83.1112 16.023 83.0967 15.9197 83.1051C15.8163 83.1135 15.7161 83.1447 15.6263 83.1963C15.5394 83.2385 15.4624 83.2987 15.4005 83.3729C15.3386 83.447 15.2932 83.5335 15.2671 83.6265C15.2411 83.7196 15.2352 83.817 15.2496 83.9125C15.2641 84.0081 15.2987 84.0994 15.3511 84.1806L15.5575 84.5616L16.8063 83.879L16.6423 83.5773ZM15.9067 75.2482L16.3353 76.4229L14.2187 77.1955L12.102 79.762L11.5728 78.3597L12.7793 77.0368L11.0119 76.804L10.5145 75.4228L13.79 76.0155L15.9067 75.2482ZM13.3138 61.1775L13.4196 62.5428L13.0439 62.9026C13.4125 63.2895 13.6463 63.785 13.7107 64.3155C13.7421 64.5172 13.7307 64.7232 13.677 64.9201C13.6234 65.117 13.5288 65.3004 13.3995 65.4582C13.2701 65.6161 13.1089 65.7448 12.9263 65.836C12.7438 65.9273 12.544 65.979 12.3401 65.9877C11.6786 66.0406 11.2818 65.8078 10.6785 65.0458C10.4029 65.3227 10.0404 65.4964 9.65192 65.5379C8.96929 65.5908 8.44541 65.0564 8.38191 64.2309C8.34939 64.0642 8.35134 63.8927 8.38764 63.7268C8.42394 63.561 8.49383 63.4043 8.59298 63.2665C8.69214 63.1286 8.81846 63.0126 8.96418 62.9254C9.10989 62.8383 9.27191 62.7819 9.44025 62.7597C9.73302 62.7489 10.0218 62.8303 10.2658 62.9926C10.4759 63.1316 10.6559 63.3116 10.7949 63.5218L11.5199 62.8709C11.2668 62.6063 10.9886 62.3671 10.6891 62.1565L11.3082 61.3363C11.6541 61.5814 11.9797 61.8539 12.2819 62.1512L13.3138 61.1775ZM9.5355 63.8234C9.49519 63.824 9.45542 63.8328 9.41864 63.8494C9.38186 63.8659 9.34883 63.8897 9.32159 63.9194C9.29434 63.9492 9.27345 63.9841 9.26019 64.0222C9.24692 64.0603 9.24157 64.1007 9.24446 64.1409C9.25118 64.2256 9.28997 64.3045 9.35291 64.3615C9.41586 64.4186 9.4982 64.4494 9.58313 64.4478C9.7684 64.4159 9.93677 64.3204 10.0594 64.1779C9.83183 63.908 9.67838 63.8022 9.49846 63.8181L9.5355 63.8234ZM11.467 64.4108C11.6945 64.7336 11.9168 64.8711 12.1549 64.8553C12.2274 64.8515 12.2983 64.8328 12.3632 64.8004C12.4282 64.768 12.4857 64.7226 12.5324 64.667C12.579 64.6114 12.6138 64.5469 12.6344 64.4773C12.655 64.4077 12.6611 64.3346 12.6523 64.2626C12.6379 64.1392 12.5969 64.0203 12.532 63.9143C12.4671 63.8083 12.38 63.7177 12.2766 63.6488L11.467 64.4108ZM14.1128 51.589L13.8694 52.8166L8.81053 51.8006L9.05925 50.5677L11.1283 50.9857L11.4617 49.3294L9.35029 48.9114L9.599 47.6837L14.6526 48.6997L14.4092 49.9274L12.4142 49.5252L12.0808 51.1868L14.1128 51.589ZM13.1974 43.1222L13.7847 41.5347L14.7372 41.884L14.1499 43.4715L15.1553 43.8366L15.7374 42.2491L16.6899 42.5984L15.6739 45.3712L10.8267 43.5985L11.8427 40.8256L12.7952 41.1696L12.2078 42.7571L13.1974 43.1222ZM18.0128 37.9787L18.542 38.5079L17.8964 39.6826L14.1922 35.7033L14.9595 34.3063L20.2935 35.3064L19.6321 36.5129L18.8754 36.3542L18.0128 37.9787ZM15.8961 35.7615L17.2931 37.222L17.8752 36.1636L15.8961 35.7615ZM23.1193 29.7712L23.9236 30.3851L22.1509 32.7135L18.0499 29.5913L18.8066 28.5912L22.1033 31.1048L23.1193 29.7712ZM27.2839 26.7444L26.4055 27.6334L23.4527 24.723L22.6166 25.5697L21.8969 24.8553L24.4475 22.2782L25.1672 22.9873L24.3364 23.8287L27.2839 26.7444ZM31.5172 23.0402L30.5118 23.7917L27.432 19.6535L28.4322 18.9074L29.6969 20.6007L31.0516 19.5847L29.7922 17.8967L30.7976 17.1452L33.8773 21.2834L32.8719 22.0295L31.6601 20.3997L30.3001 21.4104L31.5172 23.0402ZM39.1373 18.2777L38.026 18.8545L36.9677 16.8384L34.1366 15.0603L35.4596 14.3724L36.9307 15.3937V13.6104L38.2324 12.9278L38.0843 16.2563L39.1373 18.2777ZM52.7317 13.8591L51.3929 14.1449L50.9854 13.8168C50.6491 14.2339 50.1869 14.5309 49.6678 14.6635C49.4722 14.7192 49.2672 14.7335 49.0658 14.7054C48.8644 14.6773 48.6711 14.6075 48.4983 14.5004C48.3254 14.3933 48.1768 14.2513 48.062 14.0835C47.9472 13.9156 47.8687 13.7257 47.8316 13.5257C47.6993 12.8749 47.8739 12.4674 48.5512 11.753C48.2417 11.516 48.0231 11.1796 47.9321 10.8005C47.7892 10.1285 48.2549 9.5411 49.0592 9.37176C49.219 9.31906 49.3877 9.29925 49.5553 9.31363C49.7229 9.32801 49.8858 9.37627 50.0342 9.45542C50.1826 9.53456 50.3134 9.64298 50.4187 9.77413C50.524 9.90528 50.6016 10.0564 50.6468 10.2184C50.6972 10.5064 50.6545 10.803 50.525 11.0651C50.417 11.2942 50.264 11.4994 50.0753 11.6683L50.8161 12.3033C51.0435 12.0174 51.2437 11.711 51.4141 11.3879L52.3084 11.917C52.1116 12.2888 51.8832 12.6429 51.6257 12.9754L52.7317 13.8591ZM49.2921 12.4515C49.001 12.7161 48.8899 12.9807 48.9428 13.1871C48.9559 13.2579 48.9833 13.3253 49.0233 13.3851C49.0633 13.445 49.1151 13.496 49.1756 13.5352C49.236 13.5743 49.3038 13.6007 49.3748 13.6127C49.4458 13.6247 49.5185 13.6222 49.5884 13.6051C49.7089 13.5752 49.8215 13.5196 49.9183 13.4419C50.0152 13.3642 50.094 13.2665 50.1493 13.1553L49.2921 12.4515ZM49.6255 10.4618C49.6191 10.4219 49.6048 10.3837 49.5834 10.3495C49.562 10.3152 49.5339 10.2857 49.5008 10.2625C49.4678 10.2393 49.4304 10.223 49.3909 10.2145C49.3514 10.206 49.3106 10.2055 49.2709 10.2131C49.1867 10.2286 49.1121 10.2768 49.0635 10.3473C49.0148 10.4178 48.9962 10.5046 49.0116 10.5888C49.0645 10.77 49.181 10.926 49.3397 11.0281C49.5672 10.7741 49.6255 10.61 49.5672 10.4354L49.6255 10.4618ZM64.1247 12.4886L64.0718 13.4993L61.1455 13.3511L61.4101 8.19702L62.6589 8.26052L62.4473 12.3986L64.1247 12.4886ZM72.8402 12.388C72.6904 13.081 72.2723 13.6866 71.6774 14.0723C71.0824 14.458 70.359 14.5926 69.6651 14.4465C69.3136 14.3824 68.9783 14.2491 68.6788 14.0542C68.3793 13.8593 68.1215 13.6067 67.9206 13.3112C67.7197 13.0157 67.5795 12.6832 67.5084 12.333C67.4372 11.9828 67.4365 11.622 67.5061 11.2715C67.5793 10.9074 67.7284 10.5628 67.9435 10.2601C68.1587 9.9574 68.4352 9.70345 68.755 9.51465C69.3673 9.15405 70.0947 9.04225 70.787 9.20239C71.1271 9.27694 71.4491 9.41792 71.7346 9.61716C72.0201 9.81641 72.2635 10.07 72.4508 10.3635C72.6381 10.657 72.7656 10.9845 72.8261 11.3274C72.8866 11.6703 72.8787 12.0217 72.8031 12.3616L72.8402 12.388ZM68.7444 11.5255C68.6992 11.716 68.6924 11.9136 68.7245 12.1068C68.7567 12.2999 68.8271 12.4847 68.9315 12.6503C69.036 12.8159 69.1725 12.959 69.333 13.0711C69.4935 13.1833 69.6748 13.2623 69.8662 13.3035C70.0563 13.3411 70.252 13.3409 70.442 13.3027C70.632 13.2645 70.8126 13.1892 70.9734 13.081C71.1342 12.9728 71.272 12.834 71.379 12.6724C71.4859 12.5108 71.5599 12.3296 71.5966 12.1393C71.6477 11.9484 71.6594 11.7491 71.6312 11.5536C71.603 11.358 71.5354 11.1702 71.4325 11.0015C71.3296 10.8328 71.1936 10.6867 71.0326 10.5722C70.8716 10.4576 70.689 10.3768 70.4959 10.3348C70.3016 10.286 70.0994 10.2779 69.9017 10.3109C69.7041 10.3439 69.5155 10.4173 69.3476 10.5266C69.1797 10.6359 69.0361 10.7786 68.926 10.946C68.8158 11.1133 68.7414 11.3016 68.7073 11.499L68.7444 11.5255ZM79.8146 12.0917L81.0159 12.5679L77.6821 16.8013L76.4174 16.3039L76.9465 10.9593L78.1477 11.4302L77.8091 14.6794L79.8146 12.0917ZM84.5401 16.7061L86.0165 17.5474L85.4873 18.4259L84.011 17.5845L83.4818 18.5053L84.9529 19.3519L84.4237 20.2304L81.8678 18.7645L84.429 14.293L86.9902 15.7641L86.461 16.6373L84.9846 15.7959L84.5401 16.7061ZM90.6415 18.1454L91.8215 19.082C92.3978 19.4582 92.8071 20.0419 92.9645 20.7119C93.03 21.0751 93.0136 21.4483 92.9165 21.8044C92.8195 22.1605 92.6443 22.4905 92.4036 22.7703C92.1751 23.0674 91.8882 23.3146 91.5606 23.4966C91.2329 23.6786 90.8715 23.7916 90.4986 23.8287C89.8472 23.8402 89.215 23.6081 88.7259 23.1778L87.4347 22.1565L90.6415 18.1454ZM89.0539 22.1565L89.2074 22.2782C89.3638 22.4137 89.5468 22.5149 89.7446 22.5754C89.9425 22.6358 90.1508 22.6542 90.3562 22.6293C90.5615 22.6043 90.7594 22.5367 90.9371 22.4307C91.1147 22.3247 91.2682 22.1826 91.3876 22.0137C91.5278 21.8439 91.6328 21.6479 91.6964 21.4371C91.76 21.2263 91.781 21.0049 91.758 20.7859C91.6826 20.4196 91.4802 20.0916 91.1865 19.8599L90.996 19.7117L89.0539 22.1565ZM99.8226 29.1416C99.3328 29.1416 98.863 29.3361 98.5167 29.6825C98.1703 30.0288 97.9758 30.4986 97.9758 30.9884C97.9758 31.4782 98.1703 31.9479 98.5167 32.2942C98.863 32.6406 99.3328 32.8352 99.8226 32.8352C100.065 32.8352 100.305 32.7873 100.529 32.6945C100.752 32.6016 100.956 32.4655 101.127 32.2939C101.298 32.1224 101.433 31.9187 101.525 31.6947C101.618 31.4707 101.665 31.2306 101.664 30.9884C101.668 30.7407 101.623 30.4948 101.53 30.2652C101.437 30.0356 101.299 29.8271 101.123 29.6523C100.948 29.4774 100.739 29.3397 100.509 29.2474C100.279 29.1551 100.033 29.1101 99.7855 29.1151L99.8226 29.1416Z" fill="#001C72"/>
</g>
<defs>
<clipPath id="clip0">
<rect width="120" height="120" fill="white"/>
</clipPath>
</defs>
</svg>
